<svg xmlns="http://www.w3.org/2000/svg" viewBox="0 0 500 500" width="500" height="500" class="illustration"><g id="Layer_10" data-name="Layer 10"><path d="M57.47,101.55H339.61a60.12,60.12,0,0,1,60.12,60.12h0a60.12,60.12,0,0,1-60.12,60.11H62.37" fill="none" stroke="#3fe2fd" stroke-miterlimit="10" stroke-width="38"></path><path d="M420.84,406.68H135.29c-44.62,0-80.92-35.49-80.92-79.12s36.3-79.11,80.92-79.11h290.6v38H135.29c-23.66,0-42.92,18.44-42.92,41.11s19.26,41.12,42.92,41.12H420.84Z" fill="#3fe2fd"></path><rect x="231.85" y="332.52" width="26.44" height="99.42" fill="#3fe2fd"></rect><rect x="257.16" y="332.52" width="26.44" height="99.42" fill="#3fe2fd"></rect></g><g id="Layer_3" data-name="Layer 3"><path d="M341.75,214.46H95a15.22,15.22,0,0,1-15.2-15.2V128.79A15.22,15.22,0,0,1,95,113.6H341.75a50.43,50.43,0,0,1,0,100.86ZM95,127.6a1.2,1.2,0,0,0-1.2,1.19v70.47a1.2,1.2,0,0,0,1.2,1.2H341.75a36.43,36.43,0,0,0,0-72.86Z" fill="#251ac7"></path><path d="M343,252.22H55.37a7,7,0,0,1-7-7V207.46a7,7,0,0,1,7-7H341.75a36.43,36.43,0,0,0,0-72.86H55.37a7,7,0,0,1-7-7V82.84a7,7,0,0,1,7-7H343a88.19,88.19,0,1,1,0,176.38Zm-280.63-14H343a74.19,74.19,0,1,0,0-148.38H62.37V113.6H341.75a50.43,50.43,0,0,1,0,100.86H62.37Z" fill="#251ac7"></path><path d="M384.53,376.84H291.74a7,7,0,0,1,0-14h92.79a1.2,1.2,0,0,0,1.2-1.19V291.18a1.2,1.2,0,0,0-1.2-1.2H137.82a36.43,36.43,0,0,0,0,72.86h93.32a7,7,0,1,1,0,14H137.82a50.43,50.43,0,0,1,0-100.86H384.53a15.22,15.22,0,0,1,15.2,15.2v70.47A15.22,15.22,0,0,1,384.53,376.84Z" fill="#251ac7"></path><path d="M424.2,414.6H291.74a7,7,0,0,1,0-14H417.2V376.84H292.76a7,7,0,0,1,0-14H424.2a7,7,0,0,1,7,7V407.6A7,7,0,0,1,424.2,414.6Z" fill="#251ac7"></path><path d="M228.42,414.6H136.56a88.19,88.19,0,0,1,0-176.38H424.2a7,7,0,0,1,7,7V283a7,7,0,0,1-7,7H137.82a36.43,36.43,0,0,0,0,72.86h88.56a7,7,0,1,1,0,14H137.82a50.43,50.43,0,0,1,0-100.86H417.2V252.22H136.56a74.19,74.19,0,0,0,0,148.38h91.86a7,7,0,0,1,0,14Z" fill="#251ac7"></path><path d="M169.7,161.33H89a7,7,0,0,1,0-14H169.7a7,7,0,0,1,0,14Z" fill="#251ac7"></path><path d="M381.67,182.77H211.57a7,7,0,0,1,0-14h170.1a7,7,0,0,1,0,14Z" fill="#251ac7"></path><path d="M328,333.41H188.59a7,7,0,1,1,0-14H328a7,7,0,0,1,0,14Z" fill="#251ac7"></path><path d="M288.16,448.31a6.93,6.93,0,0,1-3.19-.78L258.5,434l-23,13.39a7,7,0,0,1-10.53-6V326.41a7,7,0,0,1,14,0V429.13l15.78-9.19a7,7,0,0,1,6.72-.18l19.67,10.09V326.41a7,7,0,0,1,14,0v114.9a7,7,0,0,1-7,7Z" fill="#251ac7"></path></g></svg>